<svg width="47" height="47" viewBox="0 0 47 47" fill="none" xmlns="http://www.w3.org/2000/svg">
<g clip-path="url(#clip0_47_57)">
<path d="M23.5289 0.494263C29.8391 0.494263 36.162 0.494263 42.4722 0.494263C44.4148 0.494263 45.9257 1.72584 46.3066 3.61763C46.3574 3.84617 46.3574 4.08741 46.3574 4.32864C46.3574 7.8837 46.3701 11.4388 46.3574 14.9938C46.3574 17.1903 44.6941 18.8409 42.4976 18.8536C40.3138 18.8663 38.1173 18.8536 35.9335 18.8536C35.8446 18.8536 35.743 18.8536 35.6542 18.8536C35.1844 18.8155 34.8797 18.4981 34.8797 18.0537C34.8797 17.6093 35.1844 17.2792 35.6668 17.2792C36.7461 17.2665 37.8253 17.2538 38.9045 17.2792C39.3108 17.2919 39.4758 17.1903 39.4631 16.7586C39.425 15.6794 39.5774 15.8191 38.5236 15.8191C29.1027 15.8191 19.6691 15.8191 10.2482 15.8191C10.0578 15.8191 9.86732 15.8318 9.67687 15.8064C9.27057 15.7556 8.99125 15.4382 8.99125 15.0319C8.99125 14.6129 9.25788 14.2955 9.66417 14.2447C9.85462 14.2193 10.0451 14.232 10.2355 14.232C19.7453 14.232 29.2424 14.232 38.7521 14.2193C38.9807 14.2193 39.3362 14.3717 39.4251 14.0543C39.5139 13.6734 39.5139 13.2671 39.4124 12.8735C39.387 12.7846 39.26 12.7719 39.1584 12.7719C39.0315 12.7719 38.9045 12.7719 38.7775 12.7719C28.5948 12.7719 18.3994 12.7719 8.21676 12.7719C7.53114 12.7719 7.53114 12.7719 7.53114 13.4448C7.53114 14.524 7.55653 15.6032 7.51844 16.6825C7.50574 17.1776 7.6581 17.2919 8.14057 17.2919C16.1394 17.2792 24.1383 17.2792 32.1372 17.2792C32.3276 17.2792 32.5181 17.2665 32.7085 17.2919C33.1529 17.33 33.4322 17.6474 33.4322 18.0791C33.4322 18.5108 33.1402 18.8155 32.6958 18.8663C32.5562 18.879 32.4165 18.879 32.2642 18.879C23.0591 18.879 13.8541 18.8536 4.649 18.9044C2.4017 18.9171 0.509906 17.1268 0.586086 14.8287C0.662266 12.4799 0.598782 10.131 0.598782 7.78212C0.598782 7.64246 0.586086 7.4901 0.611479 7.35044C0.649569 6.90606 0.979681 6.62673 1.41137 6.62673C1.84305 6.62673 2.14777 6.91875 2.18586 7.36313C2.19856 7.5028 2.19856 7.64246 2.19856 7.79482C2.19856 10.0802 2.19856 12.3656 2.19856 14.651C2.19856 16.4031 3.08732 17.2919 4.83945 17.2919C5.94406 17.2919 5.94406 17.2919 5.94406 16.1873C5.94406 14.8541 5.94406 13.521 5.94406 12.1879C5.94406 11.4641 6.19799 11.1975 6.909 11.1975C17.9678 11.1975 29.0265 11.1975 40.0853 11.1975C40.7709 11.1975 41.0375 11.4641 41.0375 12.1498C41.0375 13.6861 41.0502 15.2223 41.0248 16.7713C41.0248 17.203 41.1645 17.3427 41.5708 17.3046C41.8501 17.2792 42.1421 17.3046 42.4215 17.2919C43.8054 17.2411 44.7449 16.3523 44.7576 14.9811C44.783 11.4768 44.783 7.97257 44.7576 4.45561C44.7449 3.07168 43.8054 2.18291 42.4342 2.13213C42.2818 2.11943 42.1167 2.13213 41.9644 2.13213C29.636 2.13213 17.3075 2.13213 4.97912 2.13213C4.76327 2.13213 4.53473 2.11943 4.31889 2.14482C3.06193 2.29718 2.37631 3.00819 2.19856 4.32864C2.12238 4.91269 1.80496 5.20471 1.32249 5.16662C0.865412 5.12853 0.611479 4.78572 0.611479 4.21437C0.611479 2.27179 2.32552 0.545049 4.31889 0.532353C8.28024 0.494263 12.267 0.494263 16.241 0.494263C18.6788 0.494263 21.1038 0.494263 23.5289 0.494263Z" fill="#847CED"/>
<path d="M20.0627 46.2656C17.7519 46.2656 15.4284 46.2656 13.1177 46.2656C12.2543 46.2656 12.0257 46.037 12.0257 45.161C12.0257 44.2849 12.0257 43.4215 12.0257 42.5455C12.0257 41.9233 12.3051 41.644 12.9272 41.6313C13.2573 41.6186 13.6001 41.6186 13.9302 41.6313C14.2223 41.644 14.3238 41.517 14.3111 41.2377C14.3111 38.7365 14.2984 36.2226 14.3111 33.7213C14.3111 33.3912 14.1715 33.315 13.8794 33.315C13.0669 33.3277 12.267 33.3277 11.4544 33.315C10.7688 33.315 10.5148 33.0484 10.5021 32.3628C10.5021 31.9692 10.5148 31.5629 10.5021 31.1693C10.4768 30.6995 10.6926 30.3948 11.0989 30.179C15.0475 27.9698 18.9835 25.7478 22.9194 23.5259C23.3257 23.2974 23.6939 23.3101 24.0875 23.5386C24.7731 23.9322 25.4715 24.3131 26.1571 24.7067C26.4364 24.8718 26.4999 24.7956 26.5126 24.5036C26.5507 23.5005 26.703 23.3482 27.6934 23.3482C28.7853 23.3482 29.8772 23.3482 30.9818 23.3482C31.6293 23.3482 31.9087 23.6275 31.9087 24.275C31.9213 25.3035 31.934 26.3446 31.896 27.373C31.8833 27.8047 32.0356 28.0332 32.4038 28.2237C33.5465 28.8331 34.6638 29.506 35.8065 30.1282C36.2763 30.3821 36.5175 30.7122 36.4794 31.2709C36.454 31.6772 36.4794 32.0962 36.4667 32.5024C36.454 33.0103 36.162 33.3023 35.6542 33.3023C34.3972 33.315 33.1529 33.315 31.896 33.3023C31.3881 33.3023 31.0707 32.9722 31.0707 32.5024C31.0707 32.0327 31.3881 31.728 31.896 31.7153C32.7085 31.7026 33.5084 31.7153 34.321 31.7026C34.4988 31.7026 34.7654 31.8168 34.8162 31.5756C34.867 31.3597 34.5876 31.309 34.4226 31.2201C33.2672 30.5599 32.1118 29.8996 30.9437 29.2648C30.4866 29.0109 30.2708 28.6935 30.2962 28.1602C30.3216 27.246 30.2835 26.3192 30.3089 25.405C30.3216 25.0241 30.1819 24.8972 29.8137 24.9226C29.3693 24.948 28.9249 24.9353 28.4806 24.9226C28.2012 24.9099 28.0743 25.0241 28.087 25.3035C28.0997 25.5701 28.087 25.8367 28.087 26.116C28.0743 26.9667 27.5029 27.3095 26.7411 26.8905C25.7762 26.3573 24.8239 25.8367 23.8844 25.2781C23.6051 25.113 23.3765 25.113 23.0972 25.2781C19.6056 27.2587 16.1014 29.214 12.6098 31.182C12.5082 31.2328 12.4193 31.2963 12.3178 31.3471C12.2289 31.4105 12.1019 31.4613 12.14 31.601C12.1781 31.7406 12.3178 31.7153 12.4193 31.7153C13.2446 31.7153 14.0699 31.7153 14.8952 31.7153C15.6443 31.7153 15.8982 31.9692 15.8982 32.7183C15.8982 35.8797 15.8982 39.0285 15.8982 42.19C15.8982 42.9645 15.6443 43.2057 14.8698 43.2057C14.7936 43.2057 14.7174 43.2057 14.6285 43.2057C13.5239 43.2057 13.4859 43.2565 13.6128 44.3484C13.6382 44.5642 13.7271 44.6658 13.9429 44.6531C14.0826 44.6531 14.2223 44.6531 14.3746 44.6531C18.5264 44.6531 22.6909 44.6531 26.8427 44.6531C27.0205 44.6531 27.1982 44.6404 27.3633 44.6658C27.7949 44.7039 28.087 45.034 28.087 45.4657C28.087 45.8974 27.7949 46.2148 27.3506 46.2402C27.0458 46.2656 26.7538 46.2529 26.4491 46.2529C24.3161 46.2656 22.183 46.2656 20.0627 46.2656Z" fill="#847CED"/>
<path d="M38.7521 40.5521C38.7521 41.6821 38.7521 42.7994 38.7521 43.9294C38.7394 45.288 37.7745 46.2656 36.4033 46.2656C34.8924 46.2783 33.3942 46.2783 31.8833 46.2656C30.512 46.2529 29.5471 45.2879 29.5471 43.9167C29.5344 41.644 29.5344 39.384 29.5471 37.1113C29.5471 35.7401 30.5247 34.7751 31.8833 34.7751C33.3942 34.7625 34.8924 34.7625 36.4033 34.7751C37.7745 34.7878 38.7394 35.7401 38.7394 37.1113C38.7521 38.2667 38.7521 39.4094 38.7521 40.5521ZM31.1342 40.5267C31.1342 41.5932 31.1215 42.6471 31.1342 43.7136C31.1342 44.3865 31.4135 44.6785 32.0864 44.6785C33.4449 44.6912 34.8162 44.6912 36.1747 44.6785C36.873 44.6785 37.1524 44.3865 37.1524 43.6882C37.1524 41.5805 37.1524 39.4729 37.1524 37.3653C37.1524 36.6542 36.873 36.3749 36.1747 36.3749C34.8289 36.3622 33.483 36.3622 32.1372 36.3749C31.4135 36.3749 31.1342 36.6542 31.1342 37.3907C31.1215 38.4318 31.1342 39.4729 31.1342 40.5267Z" fill="#847CED"/>
<path d="M35.6922 3.54145C36.9492 3.54145 38.1935 3.54145 39.4504 3.54145C40.8217 3.55415 41.7993 4.53179 41.7993 5.87763C41.7993 7.18538 40.7963 8.16302 39.4504 8.17572C36.9238 8.18842 34.4099 8.18842 31.8833 8.17572C30.512 8.17572 29.5344 7.18538 29.5344 5.83954C29.5344 4.53179 30.5247 3.55415 31.8706 3.54145C33.1529 3.54145 34.4226 3.54145 35.6922 3.54145ZM35.6669 6.58864C36.8095 6.58864 37.9522 6.58864 39.0949 6.58864C39.7933 6.58864 40.1742 6.32201 40.1742 5.85224C40.1742 5.38246 39.7933 5.12853 39.0822 5.12853C36.7969 5.12853 34.5115 5.12853 32.2261 5.12853C31.9975 5.12853 31.7817 5.12853 31.5785 5.21741C31.3119 5.34437 31.1595 5.56021 31.1595 5.85224C31.1595 6.14426 31.3119 6.3601 31.5912 6.48707C31.7817 6.57594 31.9848 6.57594 32.2007 6.57594C33.3561 6.58864 34.5115 6.58864 35.6669 6.58864Z" fill="#847CED"/>
<path d="M23.4527 40.1712C19.9865 40.1585 17.7773 36.4638 19.4025 33.4166C19.5041 33.2262 19.631 33.0357 19.758 32.858C20.0627 32.4771 20.4944 32.4009 20.8499 32.6294C21.2181 32.8707 21.3324 33.3404 21.0784 33.7594C20.8245 34.1911 20.596 34.6101 20.5198 35.1053C20.2659 36.7304 21.3451 38.2413 22.9702 38.4953C24.6462 38.7619 26.1317 37.6954 26.3983 36.0321C26.5253 35.283 26.3602 34.6228 25.9793 33.988C25.8905 33.8356 25.7889 33.6959 25.7381 33.5309C25.6111 33.1373 25.8016 32.7437 26.1698 32.5786C26.538 32.4009 26.9189 32.5152 27.2109 32.896C28.252 34.2292 28.3536 36.3368 27.4521 37.8858C26.6269 39.3459 25.154 40.1839 23.4527 40.1712Z" fill="#847CED"/>
<path d="M10.4006 20.301C12.1527 20.301 13.5239 20.8596 14.7047 21.9262C15.1618 22.3452 15.238 22.7895 14.9079 23.1704C14.5778 23.564 14.0953 23.5513 13.6128 23.1323C11.7337 21.4945 9.33406 21.5072 7.42956 23.145C7.01058 23.5132 6.61698 23.5513 6.27417 23.272C5.82979 22.9165 5.85518 22.3705 6.35035 21.9262C7.54383 20.8596 8.92777 20.2756 10.4006 20.301Z" fill="#847CED"/>
<path d="M9.80383 5.86493C9.80383 7.17269 8.7881 8.17572 7.48035 8.17572C6.1726 8.17572 5.16957 7.15999 5.16957 5.85224C5.16957 4.54449 6.1726 3.54145 7.49305 3.54145C8.8008 3.54145 9.80383 4.55718 9.80383 5.86493ZM6.78204 5.85224C6.76934 6.20774 7.11215 6.56325 7.46765 6.57594C7.82316 6.58864 8.17867 6.24583 8.19136 5.89033C8.20406 5.53482 7.86125 5.17932 7.50574 5.16662C7.13754 5.14123 6.78204 5.48404 6.78204 5.85224Z" fill="#847CED"/>
<path d="M24.278 33.6705C24.278 34.2927 24.2907 34.9021 24.278 35.5242C24.2653 36.0321 23.9606 36.3495 23.5035 36.3622C23.021 36.3749 22.6909 36.0448 22.6909 35.5115C22.6782 34.28 22.6782 33.0484 22.6909 31.8041C22.6909 31.2836 22.9956 30.9788 23.4654 30.9662C23.9479 30.9535 24.2653 31.2836 24.278 31.8168C24.278 32.439 24.278 33.0484 24.278 33.6705Z" fill="#847CED"/>
<path d="M10.5148 23.3609C11.302 23.3863 12.0003 23.6275 12.5971 24.1481C12.9907 24.5036 13.0542 24.9733 12.7621 25.3289C12.4701 25.6844 12.013 25.7097 11.5687 25.405C10.8069 24.8718 10.2355 24.8718 9.48642 25.3923C9.04204 25.6971 8.58496 25.6717 8.29294 25.3162C7.98822 24.948 8.0644 24.4655 8.49608 24.11C9.08013 23.6148 9.76574 23.3863 10.5148 23.3609Z" fill="#847CED"/>
<path d="M10.5148 26.4081C10.9846 26.4081 11.3274 26.7509 11.3147 27.2079C11.3147 27.6523 10.9846 27.9824 10.5402 27.9824C10.0705 27.9824 9.72765 27.6396 9.74035 27.1826C9.74035 26.7382 10.0705 26.4081 10.5148 26.4081Z" fill="#847CED"/>
<path d="M34.1813 41.6313C34.4353 41.6313 34.6892 41.6186 34.9431 41.6313C35.4129 41.6567 35.7049 41.9868 35.7049 42.4312C35.7049 42.8629 35.4129 43.193 34.9685 43.2057C34.4226 43.2311 33.8639 43.2311 33.3053 43.2057C32.8736 43.1803 32.5816 42.8375 32.5943 42.4185C32.5943 41.9868 32.8863 41.6694 33.3307 41.644C33.61 41.6186 33.8893 41.644 34.1813 41.6313C34.1813 41.644 34.1813 41.644 34.1813 41.6313Z" fill="#847CED"/>
</g>
<defs>
<clipPath id="clip0_47_57">
<rect width="45.7967" height="45.784" fill="white" transform="translate(0.572968 0.494263)"/>
</clipPath>
</defs>
</svg>
