<svg width="45" height="53" viewBox="0 0 45 53" fill="none" xmlns="http://www.w3.org/2000/svg">
<path d="M0.988415 31.2673C0.988415 25.3296 1.01731 19.3918 0.973968 13.4396C0.945074 11.6337 2.28866 10.1601 4.23902 10.1746C10.4368 10.2324 16.6202 10.189 22.818 10.2035C23.3525 10.2035 23.5837 10.1312 23.6704 9.49555C24.4216 4.15012 29.247 0.278292 34.6357 0.682811C40.3424 1.10178 44.6476 6.17271 44.1564 11.8938C43.7519 16.6469 39.9378 20.6198 35.2281 21.1977C34.8236 21.2411 34.6935 21.4144 34.708 21.79C34.7224 21.9634 34.708 22.1512 34.708 22.3246C34.708 31.1229 34.708 39.9067 34.708 48.705C34.708 49.1529 34.6935 49.6152 34.5779 50.0486C34.2457 51.3633 33.1043 52.2734 31.7463 52.3023C31.6741 52.3023 31.6018 52.3023 31.5296 52.3023C22.399 52.3023 13.254 52.3023 4.12344 52.3023C2.5487 52.3023 1.37849 51.4066 1.0462 49.933C0.973968 49.6441 0.988415 49.3262 0.988415 49.0229C0.988415 43.114 0.988415 37.1907 0.988415 31.2673ZM2.63539 31.2096C2.63539 37.0462 2.63539 42.8684 2.63539 48.705C2.63539 48.9795 2.63539 49.254 2.66428 49.514C2.72207 50.1064 3.14103 50.5542 3.73337 50.6265C3.97897 50.6554 4.23902 50.6554 4.48462 50.6554C13.384 50.6554 22.2835 50.6554 31.1829 50.6554C31.3996 50.6554 31.6163 50.6554 31.833 50.6409C32.382 50.612 32.7287 50.2942 32.931 49.8174C33.061 49.5285 33.0466 49.2251 33.0466 48.9073C33.0466 43.1284 33.0466 37.3496 33.0466 31.5707C33.0466 28.3346 33.0466 25.1129 33.0466 21.8767C33.0466 21.4867 33.0032 21.2555 32.512 21.1977C27.9756 20.6343 24.2627 16.9936 23.6559 12.4572C23.5693 11.8504 23.3525 11.7782 22.8469 11.7782C16.7358 11.8071 10.6246 11.7926 4.49906 11.7926C3.0399 11.7926 2.63539 12.1972 2.63539 13.6563C2.63539 19.5074 2.63539 25.3585 2.63539 31.2096ZM42.5239 10.998C42.5094 6.12937 38.7098 2.34423 33.8556 2.34423C29.0014 2.34423 25.1873 6.20161 25.2018 11.0847C25.2162 15.8812 29.1025 19.6808 33.9567 19.6663C38.7098 19.6374 42.5383 15.7656 42.5239 10.998Z" fill="#847CED"/>
<path d="M29.7671 35.486C29.7671 42.0449 24.4361 47.4193 17.9204 47.4337C11.1881 47.4482 5.84264 42.1027 5.87154 35.3559C5.90043 29.0136 10.9569 23.5237 17.7615 23.4948C25.0284 23.466 29.8971 29.476 29.7671 35.486ZM7.53296 35.4571C7.51851 41.1926 12.0838 45.729 17.8482 45.7867C23.078 45.8301 28.1345 41.6404 28.1634 35.5582C28.1923 29.5626 23.497 25.1996 17.9204 25.1418C12.156 25.084 7.5474 29.6927 7.53296 35.4571Z" fill="#847CED"/>
<path d="M14.3953 17.3837C14.3953 17.037 14.5109 16.5747 14.7421 16.1268C15.0166 15.5923 15.4355 15.4045 15.8834 15.6212C16.3024 15.8234 16.4468 16.2568 16.2301 16.7769C16.0568 17.2248 15.9412 17.6582 16.0856 18.135C16.389 19.1318 17.3859 19.6808 18.3972 19.3774C19.3218 19.1029 19.8563 18.0772 19.5674 17.1237C19.5241 16.9648 19.4518 16.8203 19.394 16.6758C19.2351 16.228 19.394 15.8234 19.7841 15.6212C20.1742 15.4334 20.6076 15.5634 20.8532 15.9824C21.2866 16.748 21.4022 17.5715 21.2144 18.4384C20.8387 20.1142 19.1484 21.3133 17.4437 21.0966C15.6378 20.851 14.2942 19.2907 14.3953 17.3837Z" fill="#847CED"/>
<path d="M18.7006 16.0113C18.6717 16.3869 18.715 16.7625 18.6139 17.1381C18.4983 17.586 18.2094 17.846 17.7615 17.8027C17.3137 17.7594 17.0392 17.4704 17.0247 17.0081C17.0103 16.3435 17.0103 15.679 17.0247 15.0144C17.0392 14.5665 17.2848 14.2632 17.7615 14.2343C18.2527 14.1909 18.5561 14.4654 18.6283 14.9422C18.6717 15.2889 18.6717 15.6501 18.7006 16.0113Z" fill="#847CED"/>
<path d="M39.9089 9.25C39.9234 9.85678 39.2588 10.2613 38.7098 9.97235C38.5076 9.85678 38.3342 9.69786 38.1608 9.53894C35.7482 7.41521 31.9197 7.41521 29.5215 9.56783C29.4637 9.61118 29.4203 9.66896 29.3625 9.71231C28.8713 10.1457 28.3512 10.1891 28.0334 9.81343C27.7156 9.45226 27.8023 8.93216 28.279 8.4843C29.2325 7.60303 30.3305 6.93846 31.6018 6.60618C34.5635 5.84048 37.2073 6.43281 39.49 8.51319C39.7789 8.78769 39.9089 9.03329 39.9089 9.25Z" fill="#847CED"/>
<path d="M34.1301 9.87123C35.0403 9.84233 36.0227 10.2613 36.8895 10.9692C37.3807 11.3737 37.4963 11.8938 37.1929 12.2839C36.875 12.6884 36.4127 12.6884 35.8782 12.255C34.6068 11.2293 33.1621 11.2293 31.8763 12.2694C31.6452 12.4573 31.414 12.6306 31.1106 12.6017C30.7784 12.5728 30.5472 12.385 30.4172 12.0672C30.2872 11.7205 30.3883 11.4315 30.6483 11.1859C31.5441 10.2902 32.642 9.87123 34.1301 9.87123Z" fill="#847CED"/>
<path d="M33.87 15.6934C33.2055 15.6934 32.642 15.1444 32.6565 14.4943C32.6565 13.8586 33.2344 13.2952 33.8845 13.2952C34.5202 13.2952 35.0403 13.8297 35.0547 14.4654C35.0836 15.1444 34.5491 15.6934 33.87 15.6934Z" fill="#847CED"/>
<path d="M13.2974 30.5739C13.9041 30.5739 14.5254 30.5595 15.1321 30.5739C15.6956 30.5884 15.9845 30.8051 16.0279 31.3685C16.1001 32.2642 16.1001 33.1744 16.0279 34.0701C15.9845 34.6336 15.6811 34.9225 15.1032 34.937C13.8752 34.9659 12.6472 34.9659 11.4192 34.937C10.798 34.9225 10.5091 34.5902 10.4946 33.969C10.4802 33.1455 10.4802 32.3076 10.4946 31.4841C10.5091 30.8484 10.7836 30.5739 11.4337 30.5739C12.0838 30.5739 12.6906 30.5739 13.2974 30.5739ZM13.2974 32.1776C13.0662 32.1776 12.835 32.192 12.6039 32.1776C12.2138 32.1631 12.1705 32.4087 12.1849 32.7121C12.1849 33.001 12.156 33.3189 12.6039 33.3044C13.0951 33.3044 13.5719 33.3044 14.0631 33.3044C14.2364 33.3044 14.3664 33.2755 14.4242 33.0733C14.5976 32.481 14.3953 32.192 13.7886 32.192C13.6152 32.1631 13.4563 32.1776 13.2974 32.1776Z" fill="#847CED"/>
<path d="M22.4135 30.5739C23.0058 30.5739 23.5981 30.5739 24.2049 30.5739C24.8117 30.5884 25.1006 30.8051 25.144 31.383C25.2162 32.2787 25.2162 33.1889 25.144 34.0846C25.1006 34.648 24.7828 34.9225 24.2194 34.937C22.9914 34.9659 21.7634 34.9659 20.5354 34.937C19.943 34.9225 19.6396 34.6047 19.6252 34.0124C19.6107 33.16 19.6107 32.322 19.6252 31.4697C19.6396 30.8629 19.9141 30.5739 20.5209 30.5595C21.1566 30.5739 21.7923 30.5739 22.4135 30.5739ZM22.399 32.1776C22.1679 32.1776 21.9367 32.192 21.7056 32.1776C21.3155 32.1631 21.2722 32.4087 21.2866 32.6977C21.3011 32.9866 21.2577 33.3044 21.6911 33.29C22.1823 33.29 22.6591 33.29 23.1503 33.29C23.3237 33.29 23.4537 33.2611 23.5259 33.0588C23.6993 32.4665 23.497 32.1776 22.9047 32.1631C22.7169 32.1631 22.558 32.1776 22.399 32.1776Z" fill="#847CED"/>
<path d="M17.8626 37.523C19.1629 37.5374 20.232 38.6065 20.2175 39.9212C20.2175 41.2504 19.1195 42.3483 17.8049 42.3483C16.5046 42.3483 15.3777 41.1926 15.4066 39.9068C15.4355 38.5632 16.5335 37.5086 17.8626 37.523ZM18.5561 39.9068C18.5561 39.4734 18.2816 39.1989 17.8482 39.1844C17.3859 39.1844 17.0825 39.4734 17.0825 39.9068C17.0825 40.3257 17.4003 40.658 17.8337 40.658C18.2672 40.658 18.5561 40.3546 18.5561 39.9068Z" fill="#847CED"/>
</svg>
