<svg width="44" height="44" viewBox="0 0 44 44" fill="none" xmlns="http://www.w3.org/2000/svg">
<path d="M21.6023 43.2285C14.8306 43.2285 8.07095 43.2285 1.29934 43.2285C0.299669 43.2285 0.144958 43.0737 0.144958 42.0503C0.144958 41.2767 0.144958 40.5031 0.144958 39.7296C0.144958 39.1464 0.406777 38.8846 0.98992 38.8727C1.96579 38.8608 2.95357 38.8489 3.92944 38.8727C4.33407 38.8846 4.42928 38.7418 4.42928 38.361C4.41738 33.8982 4.41738 29.4353 4.41738 24.9725C4.41738 24.2108 4.63159 23.8776 5.14333 23.8776C5.67887 23.8657 5.90499 24.1989 5.90499 24.9844C5.90499 29.7566 5.90499 34.5289 5.90499 39.3131C5.90499 40.158 5.70267 40.3603 4.84581 40.3603C3.90564 40.3603 2.97737 40.3722 2.0372 40.3603C1.73968 40.3603 1.60877 40.4436 1.62067 40.765C1.64447 41.9075 1.50166 41.7289 2.54894 41.7289C7.26169 41.7408 11.9744 41.7289 16.6991 41.7408C17.1394 41.7408 17.3179 41.6456 17.2822 41.1696C17.2465 40.6698 17.2703 40.158 17.2822 39.6582C17.2941 39.1822 17.5798 38.8846 18.0201 38.8846C18.4604 38.8846 18.7579 39.1702 18.7698 39.6463C18.7817 40.1699 18.7936 40.6936 18.7698 41.2053C18.746 41.6099 18.8769 41.7408 19.2935 41.7408C22.352 41.7289 25.4224 41.7289 28.481 41.7289C30.2899 41.7289 32.1107 41.717 33.9197 41.7408C34.3124 41.7408 34.4195 41.6099 34.4195 41.2291C34.4076 37.5398 34.4076 33.8506 34.4195 30.1613C34.4195 29.7328 34.2648 29.6495 33.8721 29.6495C28.9689 29.6614 24.0538 29.6614 19.1507 29.6614C18.9841 29.6614 18.8174 29.6733 18.6627 29.6495C18.2581 29.6019 17.9844 29.3044 17.9963 28.8998C18.0082 28.519 18.2581 28.2214 18.6508 28.1738C18.7817 28.1619 18.9127 28.1619 19.0555 28.1619C24.3157 28.1619 29.5877 28.1619 34.8479 28.1619C35.7167 28.1619 35.9071 28.3523 35.9071 29.2449C35.9071 33.2198 35.919 37.1828 35.8952 41.1577C35.8952 41.6099 36.0142 41.7408 36.4665 41.7289C37.9779 41.7051 39.5012 41.7051 41.0126 41.7289C41.4053 41.7289 41.5719 41.6456 41.56 41.2172C41.5243 40.2413 41.6552 40.3722 40.6913 40.3603C39.8463 40.3484 39.0013 40.3603 38.1445 40.3603C37.5137 40.3603 37.2638 40.1104 37.2638 39.4559C37.2638 38.1349 37.2638 36.8139 37.2638 35.481C37.2638 34.8978 37.5375 34.5765 38.0136 34.5884C38.4896 34.5884 38.7514 34.9097 38.7514 35.5048C38.7514 36.4092 38.7514 37.3137 38.7514 38.2301C38.7514 38.8727 38.7514 38.8727 39.4179 38.8727C40.3223 38.8727 41.2268 38.8727 42.1432 38.8727C42.7858 38.8727 43.0357 39.1226 43.0357 39.7653C43.0357 40.5984 43.0357 41.4314 43.0357 42.2645C43.0357 42.9904 42.7977 43.2166 42.0718 43.2166C35.2645 43.2285 28.4334 43.2285 21.6023 43.2285Z" fill="#847CED"/>
<path d="M37.2876 24.9725C37.2876 22.5685 37.2876 20.1526 37.2876 17.7487C37.2876 16.987 37.5018 16.7609 38.2635 16.7609C39.168 16.7609 40.0724 16.7728 40.9888 16.749C41.1911 16.749 41.5124 16.8799 41.5481 16.5705C41.5838 16.2492 41.7147 15.8564 41.322 15.5946C40.6437 15.1424 39.9772 14.6663 39.2989 14.2022C37.6089 13.0359 35.9309 11.8696 34.2291 10.7152C33.8602 10.4653 33.7055 10.1559 33.7055 9.71556C33.7174 7.26398 33.7055 4.8124 33.7174 2.34892C33.7174 1.94429 33.6102 1.80147 33.1937 1.81338C32.1226 1.83718 31.0516 1.83718 29.9805 1.81338C29.5758 1.80147 29.4806 1.94429 29.4806 2.32511C29.5044 3.4795 29.4806 4.64579 29.4925 5.80017C29.4925 6.1453 29.433 6.46662 29.1117 6.64514C28.7666 6.82365 28.4572 6.72844 28.1477 6.51423C26.1246 5.12182 24.1014 3.72942 22.1021 2.32511C21.7332 2.0752 21.4832 2.0752 21.1143 2.32511C14.7473 6.74034 8.36847 11.1318 1.98959 15.5351C1.68017 15.7493 1.52546 16.2611 1.65637 16.5943C1.73967 16.8085 1.91819 16.749 2.0729 16.749C3.02497 16.749 3.97704 16.749 4.92911 16.749C5.70267 16.749 5.91688 16.9751 5.92879 17.7249C5.92879 18.9983 5.92879 20.2836 5.92879 21.5569C5.92879 22.1877 5.67887 22.509 5.19093 22.5209C4.70299 22.5209 4.44117 22.2115 4.44117 21.5807C4.44117 20.6287 4.42927 19.6766 4.44117 18.7245C4.45308 18.3675 4.34597 18.2247 3.96514 18.2366C2.98927 18.2604 2.00149 18.2485 1.02562 18.2366C0.418676 18.2366 0.168757 17.9748 0.156856 17.3678C0.144955 16.7728 0.180658 16.1777 0.144955 15.5827C0.121154 15.1305 0.299667 14.8329 0.668594 14.583C3.06067 12.9407 5.44085 11.2865 7.83293 9.64416C12.1529 6.66894 16.473 3.68181 20.793 0.706593C21.5427 0.194855 21.6499 0.194855 22.3877 0.694693C24.1133 1.88478 25.839 3.07487 27.5646 4.26496C27.6836 4.34826 27.7907 4.52678 27.9454 4.41967C28.0525 4.34826 27.993 4.16975 27.993 4.03884C27.993 3.09867 27.993 2.1704 27.993 1.23023C27.993 0.587584 28.2429 0.337666 28.8856 0.337666C30.6826 0.337666 32.4797 0.337666 34.2886 0.337666C34.955 0.337666 35.1931 0.587585 35.1931 1.26593C35.1931 3.84843 35.205 6.44282 35.1812 9.02531C35.1812 9.39424 35.3002 9.62036 35.5977 9.82267C37.8708 11.3698 40.1319 12.9407 42.405 14.4878C42.8572 14.7972 43.0952 15.1424 43.0476 15.7017C43 16.273 43.0476 16.8561 43.0357 17.4392C43.0238 17.9629 42.762 18.2366 42.2265 18.2366C41.2744 18.2485 40.3223 18.2366 39.3703 18.2366C38.7514 18.2366 38.7514 18.2366 38.7514 18.8435C38.7514 23.2112 38.7514 27.5907 38.7514 31.9583C38.7514 32.1011 38.7514 32.2558 38.7514 32.3987C38.7395 32.9104 38.4658 33.2198 38.0136 33.2198C37.5613 33.2198 37.2757 32.9223 37.2638 32.4106C37.2519 31.7084 37.2638 31.0182 37.2638 30.316C37.2757 28.5428 37.2876 26.7576 37.2876 24.9725Z" fill="#847CED"/>
<path d="M16.6396 23.1517C16.6396 25.0677 16.6515 26.9838 16.6277 28.9117C16.6277 29.2687 16.7348 29.5187 16.9847 29.7686C19.1626 31.8631 19.4125 35.1954 17.5441 37.4922C16.0326 39.3488 14.0452 40.0509 11.7245 39.5154C9.39194 38.968 7.90433 37.4327 7.4045 35.0764C6.97606 33.0294 7.54731 31.2205 9.08252 29.7567C9.33244 29.5187 9.43955 29.2925 9.43955 28.9474C9.41575 27.8168 9.42765 26.6862 9.42765 25.5557C9.42765 24.9249 9.68947 24.6155 10.1774 24.6155C10.6653 24.6155 10.9153 24.9368 10.9153 25.5795C10.9153 26.9362 10.9034 28.281 10.9272 29.6377C10.9272 30.0304 10.7962 30.316 10.4868 30.554C9.52285 31.3038 8.98731 32.2797 8.8207 33.4935C8.54698 35.5881 10.1774 37.7422 12.2839 38.0992C14.6283 38.4919 17.1275 36.9091 17.2584 34.0529C17.3179 32.7081 16.7824 31.5418 15.7351 30.6849C15.3067 30.3398 15.0687 29.9828 15.1401 29.4353C15.1877 29.0664 15.0449 28.9355 14.664 28.9474C13.6406 28.9831 13.7834 28.8403 13.7715 29.8162C13.7596 30.3755 13.7715 30.9468 13.7715 31.5061C13.7715 32.244 13.6406 32.3987 12.9027 32.5415C11.9506 32.72 11.4627 33.4578 11.7126 34.3147C11.8673 34.8621 12.4386 35.2787 13.0217 35.2906C13.5811 35.3025 14.1642 34.8621 14.3189 34.3147C14.3665 34.16 14.3784 33.9934 14.4141 33.8387C14.4974 33.3983 14.8068 33.1484 15.2234 33.1841C15.628 33.2198 15.8898 33.5173 15.9017 33.9696C15.9374 35.1835 15.033 36.3736 13.8072 36.7068C12.4981 37.0638 11.1414 36.5045 10.4868 35.3263C9.66566 33.8387 10.2488 32.0178 11.8197 31.3038C12.1768 31.1372 12.2839 30.9349 12.272 30.5659C12.2601 26.353 12.2601 22.152 12.2601 17.9391C12.2601 17.7725 12.2482 17.6059 12.272 17.4512C12.3077 17.0346 12.6052 16.7728 13.0098 16.7609C13.4144 16.7609 13.7239 17.0227 13.7477 17.4393C13.7715 17.8082 13.7596 18.1771 13.7596 18.5579C13.7596 18.8079 13.8548 18.9031 14.1047 18.9031C15.3543 18.8912 15.1044 19.034 15.1282 17.9391C15.1282 17.7606 15.1401 17.5821 15.1163 17.4036C14.9735 16.1897 14.0452 15.3328 12.9503 15.3923C11.7602 15.4637 10.9272 16.3563 10.9153 17.6178C10.9034 19.1887 10.9034 20.7715 10.9153 22.3424C10.9153 22.6756 10.832 22.9613 10.5225 23.1398C10.0346 23.4135 9.43955 23.0922 9.42765 22.5209C9.41575 20.712 9.36814 18.8912 9.43955 17.0822C9.52285 15.2019 11.2604 13.8214 13.2835 13.8928C15.033 13.9523 16.592 15.5351 16.6158 17.2964C16.6515 19.2482 16.6396 21.1999 16.6396 23.1517ZM15.152 21.0452C15.152 20.3788 15.152 20.3788 14.4617 20.3788C13.7834 20.3788 13.7834 20.3788 13.7834 21.0571C13.7834 21.7474 13.7834 21.7474 14.4974 21.7474C15.152 21.7474 15.152 21.7474 15.152 21.0452ZM15.152 23.9371C15.152 23.235 15.152 23.235 14.4974 23.235C13.7834 23.235 13.7834 23.235 13.7834 23.8776C13.7834 24.6036 13.7834 24.6036 14.4617 24.6036C15.1401 24.6036 15.1401 24.6036 15.152 23.9371ZM14.4617 27.4598C15.1401 27.4598 15.1401 27.4598 15.152 26.841C15.152 26.1031 15.152 26.1031 14.4974 26.1031C13.7953 26.1031 13.7953 26.1031 13.7953 26.7457C13.7834 27.4598 13.7834 27.4598 14.4617 27.4598Z" fill="#847CED"/>
<path d="M33.7769 19.6647C33.7769 23.6158 30.5874 26.8052 26.6363 26.8052C22.6138 26.8052 19.4363 23.6396 19.4363 19.629C19.4363 15.6184 22.6138 12.4647 26.6482 12.4647C30.6112 12.4647 33.7769 15.6541 33.7769 19.6647ZM26.6363 13.9642C23.5064 14.0237 20.9596 16.3682 20.9477 19.629C20.9358 22.7589 23.3636 25.27 26.5768 25.2938C29.6948 25.3176 32.2178 22.9375 32.2654 19.6885C32.3011 16.5824 29.921 14.0713 26.6363 13.9642Z" fill="#847CED"/>
<path d="M23.7682 33.1722C24.2323 33.1722 24.6846 33.1603 25.1487 33.1722C25.6367 33.1841 25.9104 33.4578 25.9104 33.9696C25.9223 34.8859 25.9223 35.8142 25.9104 36.7306C25.8985 37.2304 25.6367 37.5041 25.1368 37.516C24.5894 37.5279 24.0419 37.5398 23.4826 37.516C23.1375 37.5041 23.0423 37.635 23.0542 37.9564C23.078 39.0513 22.9352 38.8608 23.9705 38.8846C24.3752 38.8965 24.7679 38.8727 25.1725 38.8965C25.6129 38.9203 25.8985 39.2179 25.8985 39.6344C25.8985 40.0509 25.6129 40.3723 25.1725 40.3723C24.2085 40.3842 23.2446 40.3842 22.2687 40.3723C21.8284 40.3604 21.5546 40.0747 21.5546 39.6225C21.5427 38.6823 21.5427 37.7541 21.5546 36.8139C21.5665 36.3141 21.8284 36.0522 22.3282 36.0403C22.8756 36.0284 23.4231 36.0165 23.9824 36.0403C24.3276 36.0522 24.4228 35.9213 24.4109 35.6C24.3871 34.5051 24.5299 34.6955 23.4945 34.6717C23.0899 34.6598 22.6971 34.6836 22.2925 34.6598C21.8522 34.636 21.5665 34.3385 21.5665 33.922C21.5665 33.5054 21.8403 33.196 22.2925 33.1841C22.7923 33.1603 23.2803 33.1722 23.7682 33.1722Z" fill="#847CED"/>
<path d="M29.4568 40.3723C28.9927 40.3723 28.5405 40.3842 28.0763 40.3723C27.5884 40.3604 27.3028 40.0748 27.2909 39.6463C27.279 39.1941 27.5884 38.8966 28.0882 38.8847C28.6357 38.8728 29.1831 38.8728 29.7425 38.8847C30.0162 38.8847 30.159 38.8133 30.1471 38.5157C30.1233 37.3138 30.2661 37.5399 29.2069 37.528C28.8261 37.5161 28.4334 37.5399 28.0525 37.5161C27.5765 37.5042 27.3028 37.2304 27.3028 36.7544C27.2909 35.8142 27.2909 34.886 27.3028 33.9458C27.3147 33.446 27.5884 33.1841 28.0882 33.1722C29.0046 33.1603 29.9329 33.1603 30.8492 33.1722C31.3372 33.1722 31.6228 33.4698 31.6347 33.8982C31.6466 34.3504 31.3372 34.648 30.8373 34.6599C30.2899 34.6718 29.7425 34.6718 29.1831 34.6599C28.9094 34.6599 28.7666 34.7313 28.7785 35.0288C28.8023 36.2308 28.6595 36.0047 29.7187 36.0166C30.0995 36.0285 30.4922 36.0047 30.873 36.0285C31.3491 36.0404 31.6228 36.3141 31.6228 36.7901C31.6347 37.7303 31.6347 38.6586 31.6228 39.5987C31.6109 40.0986 31.3372 40.3604 30.8373 40.3723C30.3851 40.3842 29.921 40.3723 29.4568 40.3723Z" fill="#847CED"/>
<path d="M32.3487 31.0301C32.7653 31.042 33.0628 31.3633 33.0509 31.7798C33.039 32.2082 32.7058 32.5296 32.2773 32.5058C31.8489 32.482 31.5395 32.1487 31.5752 31.7084C31.599 31.3038 31.9322 31.0182 32.3487 31.0301Z" fill="#847CED"/>
<path d="M26.3983 16.023C28.1477 16.023 29.4568 16.5705 30.5636 17.6059C31.0159 18.0224 31.004 18.5579 30.5755 18.8674C30.2304 19.1054 29.921 19.0697 29.5282 18.7245C28.838 18.1057 28.0525 17.7011 27.1124 17.594C25.8033 17.4392 24.6846 17.832 23.7087 18.6888C23.4945 18.8793 23.2684 19.0578 22.959 19.0102C22.6614 18.9626 22.4472 18.7959 22.3401 18.4984C22.233 18.2009 22.3163 17.9391 22.5305 17.7249C22.9233 17.3083 23.3755 16.9751 23.8753 16.7133C24.7322 16.2492 25.6367 15.9992 26.3983 16.023Z" fill="#847CED"/>
<path d="M28.8618 20.2955C28.8499 20.5335 28.7309 20.7596 28.481 20.9024C28.1953 21.0571 27.8978 21.0452 27.6479 20.8429C27.3504 20.6049 27.0291 20.4383 26.6363 20.4383C26.2674 20.4383 25.9461 20.5573 25.6486 20.7834C25.232 21.1047 24.7679 21.0571 24.5061 20.7001C24.2442 20.355 24.3276 19.9384 24.7084 19.5933C25.7676 18.665 27.5289 18.6769 28.5524 19.629C28.7785 19.8432 28.8499 20.0098 28.8618 20.2955Z" fill="#847CED"/>
<path d="M26.5887 21.7474C27.0291 21.7474 27.3504 22.0687 27.3385 22.4971C27.3266 22.9136 27.0291 23.2231 26.6125 23.2231C26.1722 23.2231 25.8509 22.9017 25.8628 22.4733C25.8628 22.0568 26.1722 21.7593 26.5887 21.7474Z" fill="#847CED"/>
</svg>
