<svg width="39" height="46" viewBox="0 0 39 46"  xmlns="http://www.w3.org/2000/svg">
<path d="M25.5938 22.23C29.1489 22.23 32.7039 22.23 36.259 22.23C36.8938 22.23 36.9446 22.1792 36.8557 21.5571C36.5764 19.6145 35.8781 17.8497 34.71 16.2753C34.6465 16.1864 34.5703 16.0976 34.5195 15.996C34.3037 15.6024 34.3799 15.1707 34.6973 14.9295C35.0528 14.6628 35.4972 14.6882 35.8019 15.0564C36.2336 15.5643 36.6018 16.123 36.9192 16.707C37.973 18.6115 38.5571 20.6556 38.5444 22.8522C38.5444 23.5632 38.2777 23.8298 37.5667 23.8298C36.5383 23.8298 35.4972 23.8425 34.4688 23.8298C34.0879 23.8171 33.9355 23.9568 33.872 24.325C33.2372 28.1467 30.3677 30.9145 26.508 31.4351C23.0672 31.8922 19.3471 29.8226 17.9377 26.6612C17.8489 26.458 17.7346 26.2549 17.76 26.0263C17.8108 25.6708 17.9885 25.4042 18.3567 25.3153C18.763 25.2137 19.0931 25.3661 19.2709 25.7343C19.5883 26.3564 19.9184 26.9659 20.4009 27.4991C22.2546 29.556 24.5527 30.2924 27.2063 29.6322C29.9107 28.9592 31.5612 27.1563 32.1961 24.4392C32.323 23.8679 32.3103 23.8679 31.7009 23.8679C25.7843 23.8679 19.8676 23.8679 13.9383 23.8679C13.786 23.8679 13.6209 23.8679 13.4685 23.8679C12.8464 23.8552 12.5671 23.5886 12.5671 22.9664C12.5544 20.6937 13.1765 18.5734 14.2938 16.6181C15.6651 14.2185 17.633 12.4536 20.1343 11.2728C20.4136 11.1459 20.5406 10.9681 20.604 10.6761C20.9342 9.06363 21.2897 7.45116 21.6071 5.826C21.7594 5.02611 22.0388 4.64521 22.864 4.74678C23.2068 4.79757 23.2449 4.56903 23.2449 4.3024C23.2449 3.26128 23.2449 2.20746 23.2449 1.16634C23.2449 0.531504 23.5243 0.201392 24.0321 0.188695C24.54 0.188695 24.832 0.518807 24.832 1.15364C24.832 2.19476 24.8447 3.24858 24.832 4.2897C24.832 4.63251 24.9336 4.77218 25.2891 4.75948C26.4699 4.73409 26.2794 4.88645 26.2921 3.78184C26.3048 2.89308 26.2921 2.00431 26.2921 1.11555C26.2921 0.518807 26.5841 0.188695 27.0666 0.188695C27.5745 0.175998 27.8665 0.518807 27.8792 1.14094C27.8792 2.16937 27.8919 3.21049 27.8792 4.23892C27.8665 4.61982 27.9681 4.77218 28.3871 4.77218C29.1108 4.75948 29.3139 4.92454 29.4663 5.63555C29.8218 7.3115 30.1773 8.98745 30.5201 10.6634C30.5836 11.0062 30.7486 11.184 31.0534 11.3109C31.8913 11.6664 32.6531 12.1489 33.3768 12.6949C33.872 13.0758 33.9863 13.5075 33.6943 13.9137C33.4149 14.32 32.9198 14.3708 32.4373 14.0153C31.5993 13.4059 30.7105 12.8853 29.7456 12.5044C29.352 12.3521 29.1489 12.0727 29.06 11.6664C28.7299 10.054 28.3744 8.4415 28.057 6.82903C27.9808 6.44813 27.8157 6.34656 27.4475 6.34656C26.1906 6.35925 24.9463 6.35925 23.6893 6.34656C23.3211 6.34656 23.1688 6.46083 23.0926 6.82903C22.7879 8.41611 22.4324 9.99049 22.1149 11.5776C22.0134 12.06 21.7721 12.3521 21.3151 12.5552C17.3283 14.2946 15.0175 17.3291 14.2938 21.6079C14.1922 22.23 14.243 22.2808 14.8906 22.2808C18.4583 22.23 22.0261 22.23 25.5938 22.23Z" />
<path d="M0.403714 27.5499C0.403714 22.8014 0.403714 18.0655 0.403714 13.317C0.403714 10.8919 2.00349 9.27947 4.42854 9.27947C9.06281 9.27947 13.6971 9.27947 18.3313 9.27947C18.9281 9.27947 19.2582 9.50801 19.3217 9.9524C19.3852 10.4222 19.0931 10.8031 18.6234 10.8666C18.4456 10.8919 18.2806 10.8792 18.1028 10.8792C13.6463 10.8792 9.18978 10.8792 4.72057 10.8792C2.86686 10.8792 1.99079 11.7426 1.99079 13.5836C1.99079 22.941 1.99079 32.3111 1.99079 41.6686C1.99079 42.3669 2.09237 43.0271 2.58753 43.5731C3.07 44.1063 3.69214 44.3222 4.37776 44.3222C10.3706 44.3349 16.3761 44.3349 22.3689 44.3222C23.8544 44.3222 24.7685 43.3572 24.7685 41.8336C24.7812 39.1673 24.7685 36.501 24.7685 33.8347C24.7685 33.2761 25.0225 32.9587 25.4541 32.9079C25.9366 32.8571 26.3302 33.1618 26.3429 33.6697C26.3683 34.1649 26.3556 34.6473 26.3556 35.1425C26.3556 37.4279 26.3556 39.7133 26.3556 41.9987C26.3556 44.2587 24.7177 45.9092 22.4577 45.9092C16.4015 45.9092 10.3325 45.9092 4.27618 45.9092C2.05427 45.9092 0.403714 44.246 0.403714 42.0241C0.391018 37.1993 0.403714 32.3746 0.403714 27.5499Z" />
<path d="M9.60876 21.4936C9.60876 22.941 9.60876 24.3758 9.60876 25.8232C9.60876 26.6231 9.36753 26.8643 8.55495 26.8643C7.66618 26.8643 6.77742 26.8643 5.88866 26.8643C5.25382 26.8643 4.9745 26.585 4.9745 25.9755C4.9745 22.9918 4.9745 20.0208 4.9745 17.0371C4.9745 16.415 5.25382 16.1483 5.88866 16.1483C6.82821 16.1357 7.75506 16.1357 8.69461 16.1483C9.34214 16.1483 9.60876 16.4277 9.60876 17.0879C9.60876 18.548 9.60876 20.0208 9.60876 21.4936ZM8.02169 18.4591C8.02169 17.7354 8.02169 17.7354 7.34877 17.7227C6.56158 17.7227 6.56158 17.7227 6.56158 18.421C6.56158 19.1701 6.56158 19.1701 7.24719 19.1701C8.02169 19.1828 8.02169 19.1828 8.02169 18.4591ZM7.31068 20.7699C6.56158 20.7699 6.56158 20.7699 6.56158 21.4174C6.56158 22.2173 6.56158 22.2173 7.24719 22.2173C8.00899 22.2173 8.00899 22.2173 8.02169 21.5444C8.02169 20.7699 8.02169 20.7699 7.31068 20.7699ZM8.02169 24.5408C8.02169 23.8171 8.02169 23.8171 7.34877 23.8171C6.56158 23.8171 6.56158 23.8171 6.56158 24.5281C6.56158 25.2772 6.56158 25.2772 7.25989 25.2772C8.02169 25.2772 8.02169 25.2772 8.02169 24.5408Z" />
<path d="M7.2218 36.7677C5.08877 36.755 3.42551 35.0282 3.4509 32.8317C3.4636 30.7241 5.19034 29.0608 7.36146 29.0862C9.4945 29.0989 11.1578 30.8257 11.1324 33.0222C11.1197 35.1298 9.39292 36.7804 7.2218 36.7677ZM8.08517 32.0445C8.08517 32.3239 8.09787 32.6159 8.08517 32.8952C8.05978 33.4031 7.74236 33.7078 7.28528 33.7078C6.82821 33.7078 6.51079 33.3904 6.49809 32.8825C6.4854 32.3619 6.49809 31.8414 6.4854 31.3081C6.4854 31.1812 6.53618 31.0288 6.42191 30.9526C6.28225 30.851 6.15528 31.0034 6.04101 31.0669C5.12686 31.6509 4.79675 32.8825 5.26652 33.8728C5.7363 34.8759 6.90438 35.3837 7.9836 35.0155C8.92315 34.6981 9.43101 33.9998 9.4945 33.0222C9.54528 32.1715 9.18978 31.4859 8.45337 31.0161C8.18674 30.851 8.04708 30.851 8.05978 31.2192C8.09787 31.5113 8.08517 31.7779 8.08517 32.0445Z" />
<path d="M13.367 42.1003C12.5925 42.1003 11.818 42.1129 11.0308 42.1003C9.73573 42.0749 8.77079 41.0845 8.77079 39.7768C8.77079 38.4817 9.74843 37.4787 11.0562 37.466C12.6052 37.4533 14.1669 37.4533 15.7158 37.466C17.0109 37.4787 17.9758 38.4817 17.9758 39.7895C17.9758 41.0845 16.9982 42.0749 15.6904 42.1003C14.9286 42.1129 14.1542 42.1003 13.367 42.1003ZM13.3797 40.5132C14.0653 40.5132 14.7382 40.5132 15.4238 40.5132C16.0079 40.5005 16.3634 40.2211 16.3634 39.7895C16.3634 39.3578 16.0079 39.0658 15.4238 39.0658C14.0653 39.0531 12.694 39.0531 11.3355 39.0658C10.7515 39.0658 10.396 39.3578 10.396 39.7895C10.396 40.2211 10.7515 40.5132 11.3355 40.5132C12.0211 40.5132 12.694 40.5132 13.3797 40.5132Z" />
<path d="M26.1271 13.0885C27.1936 13.1012 28.5775 13.6344 29.7583 14.7136C30.2154 15.1326 30.2789 15.577 29.9615 15.9579C29.6186 16.3642 29.1743 16.3515 28.6791 15.9198C26.7746 14.2819 24.3876 14.2946 22.4704 15.9579C21.9118 16.4404 21.2008 16.3007 21.0357 15.6532C20.9215 15.2469 21.1373 14.9549 21.4293 14.7009C22.5974 13.6217 23.994 13.0758 26.1271 13.0885Z" />
<path d="M25.5684 16.1357C26.3556 16.161 27.0666 16.4023 27.6507 16.9355C28.0443 17.291 28.095 17.7608 27.803 18.1163C27.5237 18.4464 27.0666 18.4845 26.6476 18.2052C25.8224 17.6465 25.3526 17.6465 24.4892 18.2179C24.0702 18.4972 23.6131 18.4464 23.3465 18.0909C23.0672 17.7354 23.118 17.291 23.4989 16.9482C24.0702 16.4023 24.7812 16.161 25.5684 16.1357Z" />
<path d="M13.9002 26.9659C13.3797 26.9659 13.113 26.75 13.0115 26.3564C12.9099 25.9501 13.0749 25.62 13.4558 25.4677C14.0145 25.2391 14.5985 25.0741 15.1826 25.0106C15.6143 24.9598 15.919 25.201 16.0206 25.62C16.1221 26.0263 15.9444 26.3564 15.5762 26.5088C15.0175 26.75 14.4208 26.8643 13.9002 26.9659Z" />
<path d="M21.6325 34.6727C21.7213 34.1522 21.861 33.5554 22.1022 32.9841C22.2546 32.6286 22.5847 32.4762 22.9656 32.5524C23.3592 32.6413 23.6258 32.8952 23.6004 33.3269C23.5497 33.9744 23.3719 34.6092 23.1053 35.1933C22.9529 35.5488 22.6101 35.6884 22.2292 35.5742C21.8229 35.4599 21.6198 35.1806 21.6325 34.6727Z" />
<path d="M29.5044 34.66C29.5044 35.206 29.2885 35.4726 28.8949 35.5742C28.514 35.6758 28.1712 35.5234 28.0189 35.1679C27.7776 34.5838 27.5999 33.9744 27.5364 33.3396C27.4983 32.9206 27.7522 32.6413 28.1458 32.5524C28.5267 32.4635 28.8695 32.6032 29.0219 32.9587C29.2885 33.53 29.4028 34.1522 29.5044 34.66Z" />
<path d="M37.2239 26.9659C36.7034 26.8516 36.0685 26.7373 35.4972 26.4707C35.1544 26.3057 35.002 25.9755 35.1036 25.5946C35.2052 25.2137 35.4718 24.9725 35.8654 24.9979C36.5256 25.0487 37.1731 25.2264 37.7699 25.5058C38.1 25.6581 38.2143 26.0009 38.1127 26.3564C38.0111 26.7627 37.7445 26.9786 37.2239 26.9659Z" />
<path d="M18.8265 30.4828C18.8265 31.0542 17.4426 32.4635 16.9347 32.4508C16.6046 32.4381 16.3634 32.2604 16.2237 31.9683C16.084 31.689 16.1094 31.397 16.3126 31.1685C16.7062 30.7368 17.1252 30.3178 17.5568 29.9242C17.7981 29.7083 18.1028 29.6957 18.3948 29.848C18.6742 30.0131 18.8011 30.2543 18.8265 30.4828Z" />
<path d="M35.0147 31.6128C34.9639 31.981 34.8243 32.2223 34.5195 32.3619C34.2275 32.5016 33.9482 32.4762 33.7197 32.2731C33.288 31.8795 32.869 31.4732 32.4881 31.0288C32.2214 30.7114 32.2468 30.3432 32.5262 30.0385C32.7801 29.7464 33.1356 29.6449 33.4657 29.8607C34.0244 30.2416 34.4941 30.7495 34.9004 31.2954C34.9766 31.397 34.9893 31.5367 35.0147 31.6128Z" />
<path d="M5.02528 13.1139C5.02528 13.5836 4.68248 13.9137 4.2127 13.9137C3.76832 13.901 3.43821 13.5709 3.43821 13.1266C3.43821 12.6568 3.78102 12.3267 4.25079 12.3267C4.70787 12.3394 5.02528 12.6695 5.02528 13.1139Z" />
<path d="M8.07247 13.1392C8.05978 13.5963 7.70427 13.9264 7.2345 13.9137C6.79011 13.8883 6.4727 13.5455 6.4854 13.1012C6.49809 12.6441 6.8536 12.314 7.32337 12.3267C7.76775 12.3521 8.08517 12.6949 8.07247 13.1392Z" />
<path d="M25.6065 19.1828C26.0509 19.1955 26.3683 19.5384 26.3556 19.9827C26.3429 20.4398 25.9874 20.7826 25.5303 20.7572C25.0733 20.7318 24.7431 20.3763 24.7812 19.9066C24.8066 19.4749 25.1621 19.1702 25.6065 19.1828Z" />
</svg>
