<svg width="47" height="46" viewBox="0 0 47 46" fill="none" xmlns="http://www.w3.org/2000/svg">
<path d="M46.3281 22.6697C45.9357 24.3104 45.056 25.5706 43.4985 26.284C43.2726 26.391 43.0348 26.4861 42.7851 26.5455C42.4523 26.6169 42.4523 26.7714 42.5593 27.0449C45.5196 35.2245 40.5262 43.9868 31.9661 45.6631C24.3096 47.1493 16.6768 41.7754 15.5236 34.0832C15.262 32.2998 15.2977 30.5403 15.7019 28.7807C15.8327 28.2338 15.8208 28.2338 15.2263 28.2338C12.373 28.2338 9.51959 28.2338 6.66622 28.2338C3.61073 28.2338 1.1497 26.2127 0.686029 23.1809C0.139133 19.5548 2.81417 16.7371 5.86965 16.4042C6.70189 16.3091 7.53412 16.3447 8.36635 16.3447C8.73491 16.3447 8.87758 16.214 8.98458 15.8692C10.3399 11.4227 13.3003 8.70008 17.8419 7.71329C18.9119 7.4874 19.9938 7.47551 21.0757 7.51118C21.4562 7.52307 21.6702 7.39229 21.8485 7.0594C22.7164 5.50193 23.727 4.06336 25.1299 2.9339C26.9727 1.45965 29.0295 0.556086 31.3598 0.25886C31.4192 0.246971 31.4787 0.223193 31.5262 0.211304C32.4179 0.211304 33.3096 0.211304 34.2013 0.211304C34.2726 0.235082 34.3439 0.25886 34.4153 0.270749C38.1722 0.817645 41.1207 2.67234 43.0705 5.90616C45.163 9.37776 45.7099 13.0277 43.6412 16.7609C43.5223 16.9749 43.5936 17.0819 43.7719 17.1889C44.2356 17.4861 44.6636 17.8309 45.0322 18.247C45.7099 19.0198 46.0784 19.9233 46.3281 20.8982C46.3281 21.4808 46.3281 22.0753 46.3281 22.6697ZM7.92646 17.9498C7.92646 17.9617 7.92646 17.9735 7.92646 17.9973C7.22501 17.9973 6.52355 17.9141 5.83399 18.0092C3.61073 18.3302 2.07705 20.3514 2.21972 22.6935C2.3505 24.8097 4.27652 26.6407 6.44033 26.6525C9.60281 26.6763 12.7653 26.6525 15.9397 26.6644C16.2488 26.6644 16.4152 26.5574 16.5341 26.2721C17.4615 24.1558 18.8406 22.3725 20.6359 20.9101C24.9991 17.3791 31.2052 16.8322 36.1154 19.5548C38.3743 20.8031 40.1696 22.5389 41.4892 24.7741C41.62 25 41.727 25.2021 42.0599 25.1307C43.4034 24.8097 44.3069 24.0132 44.6755 22.6697C45.0678 21.2192 44.4258 19.5667 43.1537 18.6631C41.8459 17.7358 40.0863 17.712 38.7429 18.568C38.4694 18.7463 38.2554 19.1862 37.9106 19.0673C37.6015 18.9603 37.3875 18.6037 37.126 18.3659C36.9238 18.1757 36.9476 18.033 37.1497 17.8547C38.3505 16.7727 39.7416 16.2496 41.3585 16.4042C41.8102 16.4517 42.0956 16.3447 42.3215 15.9286C43.4272 13.9788 43.5223 11.922 43.0229 9.79388C41.8102 4.68159 36.912 1.15054 31.5619 1.82821C28.875 2.173 26.6636 3.37379 24.8802 5.38304C24.0242 6.34605 23.4298 7.4874 22.7878 8.58119C22.5738 8.94975 22.336 9.09242 21.908 9.08053C20.6121 9.05676 19.3162 9.02109 18.044 9.28265C13.9304 10.103 10.9819 13.1941 10.2567 17.4504C10.1854 17.8547 10.0308 17.9735 9.65037 17.9617C9.0797 17.9379 8.49713 17.9498 7.92646 17.9498ZM24.3096 31.8599C24.3096 35.4742 24.3096 39.0766 24.2977 42.6909C24.2977 43.0594 24.3809 43.2972 24.7614 43.4399C27.8525 44.6288 30.9318 44.6288 34.0229 43.4399C34.3677 43.3091 34.4866 43.0951 34.4866 42.7384C34.4747 35.4861 34.4747 28.2457 34.4866 20.9934C34.4866 20.6248 34.3677 20.4227 34.0229 20.2919C30.9555 19.1149 27.8882 19.0911 24.8089 20.28C24.4285 20.4227 24.3096 20.6367 24.3096 21.0409C24.3215 24.6433 24.3096 28.2576 24.3096 31.8599ZM22.7045 31.8599C22.7045 28.5905 22.7045 25.321 22.7045 22.0634C22.7045 21.885 22.7997 21.6235 22.6094 21.5284C22.4311 21.4451 22.2884 21.6829 22.122 21.778C22.0982 21.7899 22.0744 21.8137 22.0506 21.8256C18.3532 24.7027 16.6055 28.4478 17.0335 33.1321C17.3783 36.8771 19.2211 39.8137 22.2409 42.037C22.3598 42.1321 22.4905 42.3223 22.657 42.2272C22.7759 42.1559 22.7164 41.9538 22.7164 41.8111C22.7045 38.494 22.7045 35.177 22.7045 31.8599ZM36.0916 21.3738C36.0916 21.6354 36.0916 21.8018 36.0916 21.9564C36.0916 28.5667 36.0916 35.177 36.0916 41.7873C36.0916 41.9419 36.0084 42.1559 36.1629 42.2391C36.3175 42.3104 36.4483 42.1202 36.5791 42.037C42.0243 38.2206 43.4866 30.7186 39.8842 25.1426C38.9093 23.6446 37.6847 22.42 36.0916 21.3738Z" fill="#847CED"/>
<path d="M6.53544 37.7569C6.53544 37.0436 6.53544 36.3302 6.53544 35.6169C6.54733 34.7371 7.04667 34.1308 7.91457 34.0594C8.99647 33.9643 10.0784 33.9643 11.1603 34.0594C11.9212 34.1308 12.4205 34.6301 12.48 35.391C12.5989 36.9485 12.5751 38.5059 12.4919 40.0634C12.4443 40.9551 11.8261 41.4901 10.9344 41.502C9.98326 41.5258 9.03214 41.5258 8.08102 41.502C7.14178 41.4782 6.54733 40.8362 6.53544 39.897C6.53544 39.1717 6.53544 38.4703 6.53544 37.7569ZM8.10479 37.7569C8.10479 38.3157 8.11668 38.8864 8.10479 39.4452C8.09291 39.8018 8.18802 39.9564 8.58036 39.9445C9.21048 39.9207 9.85248 39.9207 10.4945 39.9445C10.8155 39.9564 10.9463 39.8494 10.9463 39.5165C10.9344 38.3633 10.9344 37.21 10.9463 36.0449C10.9463 35.712 10.8155 35.605 10.4945 35.6169C9.85248 35.6288 9.22237 35.6288 8.58036 35.6169C8.23557 35.605 8.09291 35.7239 8.11668 36.0806C8.11668 36.6275 8.10479 37.1981 8.10479 37.7569Z" fill="#847CED"/>
<path d="M2.21972 37.7926C2.21972 38.3514 2.23161 38.9221 2.20783 39.4808C2.19594 39.8375 2.33861 39.9445 2.68339 39.9326C3.34918 39.9088 4.01496 39.9445 4.69264 39.9207C5.03742 39.9088 5.18009 40.0277 5.1682 40.3844C5.14442 41.6684 5.29898 41.4782 4.09819 41.502C3.49184 41.5139 2.8855 41.5139 2.26727 41.502C1.26859 41.4782 0.662251 40.86 0.662251 39.8732C0.662251 38.4584 0.662251 37.0555 0.662251 35.6407C0.662251 34.7252 1.16159 34.1545 2.06516 34.0475C2.96873 33.9524 3.87229 34.0238 4.77586 34.0119C5.0612 34.0119 5.1682 34.1545 5.1682 34.428C5.15631 35.8309 5.32276 35.5931 4.03874 35.6169C3.56318 35.6288 3.08762 35.6288 2.61205 35.6169C2.32672 35.605 2.20783 35.7239 2.21972 36.0092C2.21972 36.6037 2.21972 37.1981 2.21972 37.7926Z" fill="#847CED"/>
<path d="M14.941 39.9326C15.4284 39.9207 15.9159 39.8969 16.3439 40.2417C17.081 40.8362 17.1761 42.2153 16.5104 42.9405C16.2488 43.2259 15.9635 43.4874 15.69 43.7609C15.5711 43.8798 15.4522 43.9987 15.5236 44.1889C15.5949 44.3672 15.7732 44.3197 15.9159 44.3316C17.0454 44.3553 16.9265 44.1294 16.9502 45.4372C16.9502 45.782 16.8314 45.9247 16.4866 45.9009C16.1893 45.8771 15.8921 45.889 15.5949 45.9009C14.9053 45.9366 14.3465 45.6988 14.0612 45.0568C13.7521 44.3553 13.7521 43.6301 14.2633 43C14.513 42.6909 14.8221 42.4293 15.1074 42.1559C15.2382 42.0251 15.4166 41.8943 15.3333 41.6684C15.2501 41.4425 15.0242 41.5257 14.8697 41.5257C13.7878 41.502 13.8829 41.6803 13.8591 40.5152C13.8472 40.0634 14.0137 39.8851 14.4535 39.9445C14.6081 39.9564 14.7746 39.9326 14.941 39.9326Z" fill="#847CED"/>
<path d="M29.2079 8.99732C32.3228 9.0211 34.8314 10.0554 37.019 11.9339C37.2092 12.1004 37.2092 12.2193 37.0665 12.4095C36.3651 13.3963 36.3651 13.3963 35.4021 12.6591C31.7521 9.82955 26.7944 9.87711 23.2039 12.778C22.4668 13.3725 22.4668 13.3725 21.8842 12.6354C21.4919 12.136 21.4919 12.1479 21.9674 11.7437C24.1431 9.96033 26.6042 9.00921 29.2079 8.99732Z" fill="#847CED"/>
<path d="M29.41 11.9458C31.4906 11.9696 33.2858 12.671 34.8076 14.0977C35.0573 14.3236 35.0929 14.4782 34.8314 14.7397C34.0943 15.4768 34.1061 15.4887 33.3096 14.8705C30.8367 12.9564 27.4839 13.0634 25.1418 15.1796C24.8446 15.4531 24.6781 15.465 24.3928 15.1677C23.6081 14.3593 23.5962 14.3712 24.5117 13.6459C25.9503 12.5046 27.5791 11.9458 29.41 11.9458Z" fill="#847CED"/>
<path d="M29.4813 14.8824C30.7059 14.8943 31.7878 15.4174 32.6913 16.3685C32.8578 16.5469 32.8935 16.6895 32.7032 16.856C32.6676 16.8798 32.6438 16.9154 32.6081 16.9511C32.3585 17.177 32.1801 17.5574 31.8591 17.6169C31.5262 17.6644 31.3598 17.2483 31.1101 17.0462C30.0282 16.1902 28.4945 16.2734 27.4602 17.2721C26.9608 17.7595 27.0441 17.7952 26.509 17.2602C25.8195 16.5706 25.8195 16.5706 26.5804 15.9405C27.3769 15.2628 28.3162 14.8943 29.4813 14.8824Z" fill="#847CED"/>
<path d="M29.3743 35.605C27.3532 35.5812 25.6649 33.8692 25.653 31.8599C25.653 29.8269 27.4007 28.0911 29.4219 28.1268C31.4906 28.1625 33.1788 29.8745 33.1431 31.9075C33.1075 33.9286 31.3717 35.6288 29.3743 35.605ZM29.41 34C30.6345 34 31.5381 33.0845 31.5381 31.8599C31.5381 30.6354 30.6227 29.7318 29.3981 29.7318C28.1854 29.7318 27.2699 30.6592 27.2699 31.8718C27.2699 33.0964 28.1854 34 29.41 34Z" fill="#847CED"/>
<path d="M29.3862 26.7833C28.7204 26.7833 28.0546 26.7952 27.3769 26.7833C26.2713 26.7596 25.6768 26.1651 25.6411 25.0713C25.6293 24.6552 25.6174 24.2391 25.653 23.823C25.7125 22.8956 26.2356 22.2893 27.1511 22.2536C28.6491 22.206 30.1471 22.206 31.6451 22.2536C32.5725 22.2893 33.1075 22.9432 33.1312 23.8824C33.1431 24.2866 33.1431 24.679 33.1312 25.0832C33.1075 26.1175 32.5011 26.7477 31.4668 26.7714C30.7772 26.7952 30.0876 26.7833 29.3862 26.7833ZM29.3505 25.1664C29.8142 25.1664 30.266 25.1664 30.7297 25.1664C31.55 25.1664 31.5381 25.1664 31.5381 24.3223C31.5381 23.9537 31.4073 23.823 31.0388 23.8348C30.0758 23.8467 29.1127 23.8348 28.1378 23.8348C27.1867 23.8348 27.1986 23.8348 27.2462 24.7741C27.2581 25.0594 27.3651 25.1783 27.6504 25.1783C28.2211 25.1664 28.7917 25.1664 29.3505 25.1664Z" fill="#847CED"/>
<path d="M26.4139 40.004C26.295 40.004 26.1761 40.004 26.0573 40.004C25.9978 40.004 25.9265 40.0159 25.8789 39.9921C25.4271 39.6948 25.7125 39.2431 25.653 38.8626C25.6174 38.6367 25.6887 38.4465 25.974 38.4465C26.0335 38.4465 26.0929 38.4465 26.1524 38.4465C27.3769 38.4703 27.2462 38.2444 27.2581 39.576C27.2581 39.897 27.1392 40.0515 26.8063 40.0158C26.6755 39.9921 26.5447 40.004 26.4139 40.004Z" fill="#847CED"/>
<path d="M29.3624 40.004C29.2435 40.004 29.1246 40.004 29.0057 40.004C28.9463 40.004 28.875 40.0159 28.8274 39.9921C28.3637 39.7067 28.661 39.2431 28.5896 38.8745C28.554 38.6605 28.6134 38.4465 28.9106 38.4465C28.982 38.4465 29.0533 38.4465 29.1365 38.4465C30.3135 38.4584 30.1946 38.2682 30.2065 39.5165C30.2065 39.8732 30.0995 40.0515 29.7191 40.0158C29.6002 39.9921 29.4813 40.004 29.3624 40.004Z" fill="#847CED"/>
<path d="M32.3347 40.004C31.5262 40.004 31.5262 40.004 31.5262 39.2074C31.5262 38.4346 31.5262 38.4346 32.3109 38.4346C33.1312 38.4346 33.1312 38.4346 33.1312 39.2549C33.1431 40.004 33.1431 40.004 32.3347 40.004Z" fill="#847CED"/>
<path d="M18.3056 31.8481C18.3056 30.7662 18.3175 29.6843 18.2937 28.6024C18.2818 28.2338 18.4245 28.103 18.7812 28.103C20.0771 28.1149 19.8512 28.0198 19.8631 29.1493C19.875 31.1109 19.8512 33.0607 19.875 35.0224C19.875 35.4742 19.7442 35.6288 19.2924 35.6169C18.1392 35.5931 18.3056 35.6882 18.2937 34.6063C18.3056 33.6909 18.3056 32.7754 18.3056 31.8481Z" fill="#847CED"/>
<path d="M20.5289 31.8124C20.5289 31.218 20.5407 30.6235 20.5289 30.029C20.517 29.7318 20.624 29.601 20.9331 29.601C22.3003 29.6129 22.0744 29.4584 22.0863 30.7067C22.0982 31.6816 22.0744 32.6684 22.0863 33.6433C22.0863 33.9762 21.9793 34.1189 21.6226 34.1189C20.3148 34.0951 20.5407 34.2734 20.517 33.0608C20.5289 32.6446 20.5289 32.2285 20.5289 31.8124Z" fill="#847CED"/>
<path d="M40.4787 31.8718C40.4787 32.9537 40.4668 34.0356 40.4787 35.1175C40.4787 35.4742 40.3717 35.6288 40.0031 35.6169C38.731 35.5931 38.9212 35.712 38.9093 34.5707C38.8974 32.5971 38.9212 30.6235 38.8974 28.6499C38.8974 28.2457 39.0163 28.0911 39.4324 28.103C40.6808 28.1268 40.4549 28.0436 40.4787 29.1017C40.4906 30.029 40.4787 30.9445 40.4787 31.8718Z" fill="#847CED"/>
<path d="M36.698 31.8719C36.698 31.2655 36.7098 30.6592 36.698 30.0528C36.698 29.7318 36.8168 29.601 37.1497 29.6129C38.4932 29.6367 38.303 29.4346 38.3149 30.7543C38.3268 31.7173 38.303 32.6803 38.3149 33.6433C38.3149 34 38.196 34.1427 37.8274 34.1308C36.5553 34.0951 36.7217 34.2972 36.7098 33.037C36.6861 32.6328 36.698 32.2523 36.698 31.8719Z" fill="#847CED"/>
</svg>
